<?xml version="1.0" encoding="UTF-8"?>
<svg width="70px" height="70px" viewBox="0 0 70 70" version="1.1" xmlns="http://www.w3.org/2000/svg" xmlns:xlink="http://www.w3.org/1999/xlink">
    <!-- Generator: Sketch 63.1 (92452) - https://sketch.com -->
    <title>web/svg/ic_flag_unknown</title>
    <desc>Created with Sketch.</desc>
    <g id="Symbols" stroke="none" stroke-width="1" fill="none" fill-rule="evenodd">
        <g id="lang/00-unknown">
            <g id="unknown">
                <circle id="bg" fill="#FFFFFF" cx="35" cy="35" r="35"></circle>
                <path d="M25.7562253,21.4503393 C27.9374007,21.5129619 30.1079621,22.8864124 32.3209795,22.8513863 C34.5753914,22.8142373 36.6483041,21.2168315 38.8867951,21.4503393 C40.2549387,21.5915054 41.5689509,22.3387305 42.7163234,23.0912625 C45.427137,24.8733518 46.9141573,28.3579254 49.8287596,29.7802004 C51.3996304,30.5412236 54.0308391,29.0754313 54.9383354,30.5709428 C56.5176975,33.1681867 52.4260035,36.229262 52.1415485,39.2606182 C51.8889355,41.9119934 53.5871742,44.5209127 53.2369125,47.1627354 C52.8940805,49.7398127 51.4473934,52.1481275 50.135504,54.3940482 C48.5635717,57.0804496 47.3514538,61.6465891 44.2373085,61.8089832 C41.699503,61.9405967 40.4268853,58.4910492 39.1914166,56.2780318 C37.7510979,53.6967089 38.1427542,50.3501172 36.9401889,47.6488562 C35.8565003,45.2044538 34.8916884,42.2834831 32.5640399,40.9609797 C30.7458631,39.9292997 28.3333026,40.7731121 26.2412848,40.6595423 C23.1833936,40.4907799 19.3920756,42.1009225 17.1217427,40.0492378 C14.6635421,37.8340976 14.4565693,33.4292909 15.4203198,30.263137 C16.4169736,26.9812906 19.8123897,24.88715 22.5306331,22.7898251 C23.0570871,22.385432 23.559129,21.9449513 24.1747405,21.6955225 C24.3795906,21.6084878 24.6247738,21.5469266 24.8444834,21.5129619 C25.1554734,21.4609533 25.4431126,21.4439709 25.7562253,21.4503393 M37.1853721,4.3713645 C41.1242246,4.42337306 44.7478415,5.5856052 50.6205634,8.74857487 C58.4505054,12.9686982 63.6513616,21.0363936 59.6774829,26.3147319 C58.755127,27.5417094 56.6429426,25.7447605 55.1208961,25.5239895 C53.4311485,25.2777449 51.5673315,25.6757696 50.0113203,24.9763075 C48.955228,24.4986779 48.4224056,23.3353843 47.5191549,22.6062031 C46.2146953,21.5501108 44.6979558,20.8018244 43.3871277,19.747855 C42.6600693,19.1693924 42.1336153,18.2502207 41.3184607,17.804433 C39.9566855,17.0593307 37.3796082,18.0952564 36.8223736,16.650692 C36.4052437,15.5701876 39.1043819,14.755033 38.7042344,13.6713444 C38.3040869,12.585533 36.4179805,12.2840957 35.3608269,12.7596025 C34.2452963,13.2637671 34.943697,15.4014252 33.9014029,16.0435717 C32.157524,17.1155849 29.6664201,15.2284171 27.7007087,15.7994499 C25.5980769,16.408693 24.5356162,19.4283738 22.3480725,19.5079787 C21.0276918,19.5525575 19.0163403,18.8127623 18.8836654,17.5019342 C18.5747982,14.3846047 23.7926368,13.5312397 25.9366632,11.242863 C26.7263442,10.3990507 28.7016082,9.42362477 28.0053303,8.50869865 C27.1222461,7.34328231 24.6513088,11.4477131 23.9921798,10.1496218 C23.000833,8.19027888 24.4729937,6.8125827 27.1530267,5.89341098 C28.7599851,5.33936058 30.8435118,4.95725687 33.0490994,4.67704747 C34.5233829,4.49130261 35.8724213,4.35544351 37.1853721,4.3713645 M32.9907224,0.0588994773 C30.6715651,0.192635779 28.3269342,0.589599086 25.9961016,1.21264043 C7.35580851,6.20546235 -3.80162007,25.4879019 1.19226325,44.122888 C6.18826937,62.7525671 25.4738931,73.7911189 44.1173704,68.7972356 C62.7576635,63.8033523 73.7930311,44.6408508 68.7991478,26.0111717 C64.4293672,9.70701836 49.2227006,-0.889991423 32.9907224,0.0588994773" id="icLang" fill="#9B9B9B"></path>
            </g>
        </g>
    </g>
</svg>